<svg xmlns="http://www.w3.org/2000/svg" xmlns:xlink="http://www.w3.org/1999/xlink" width="90" zoomAndPan="magnify" viewBox="0 0 67.5 30.000001" height="40" preserveAspectRatio="xMidYMid meet" version="1.2"><defs><clipPath id="2f3948cd21"><path d="M 33 0 L 48.9375 0 L 48.9375 18.871094 L 33 18.871094 Z M 33 0 "/></clipPath><clipPath id="0f15a54875"><path d="M 17.730469 0 L 34 0 L 34 18.871094 L 17.730469 18.871094 Z M 17.730469 0 "/></clipPath><clipPath id="c1a1fc1b5c"><path d="M 28 0 L 44 0 L 44 18.871094 L 28 18.871094 Z M 28 0 "/></clipPath><clipPath id="50e90b37d4"><path d="M 48 0 L 50 0 L 50 2.902344 L 48 2.902344 Z M 48 0 "/></clipPath><clipPath id="e6dbbef84f"><path d="M 47.835938 0 L 50.738281 0 L 50.738281 2.902344 L 47.835938 2.902344 Z M 47.835938 0 "/></clipPath></defs><g id="38b9f0cf19"><g clip-rule="nonzero" clip-path="url(#2f3948cd21)"><path style=" stroke:none;fill-rule:nonzero;fill:#f4b400;fill-opacity:1;" d="M 48.9375 11.457031 L 43.722656 18.636719 L 33.332031 4.277344 L 35.074219 1.871094 C 35.917969 0.667969 37.257812 0.0898438 38.550781 0.0898438 C 39.84375 0.0898438 41.136719 0.667969 41.984375 1.828125 Z M 48.9375 11.457031 "/></g><g clip-rule="nonzero" clip-path="url(#0f15a54875)"><path style=" stroke:none;fill-rule:nonzero;fill:#4285f4;fill-opacity:1;" d="M 33.332031 4.277344 L 22.945312 18.636719 L 17.730469 11.457031 L 24.683594 1.828125 C 25.53125 0.667969 26.824219 0.0898438 28.117188 0.0898438 C 29.410156 0.0898438 30.703125 0.667969 31.550781 1.828125 Z M 33.332031 4.277344 "/></g><g clip-rule="nonzero" clip-path="url(#c1a1fc1b5c)"><path style=" stroke:none;fill-rule:nonzero;fill:#db4437;fill-opacity:1;" d="M 43.722656 4.277344 L 33.332031 18.636719 L 28.117188 11.457031 C 34.804688 2.273438 35.074219 1.828125 35.074219 1.828125 C 35.917969 0.667969 37.257812 0.0898438 38.550781 0.0898438 C 39.84375 0.0898438 41.136719 0.667969 41.984375 1.828125 Z M 43.722656 4.277344 "/></g><g style="fill:#ffffff;fill-opacity:1;"><g transform="translate(19.112004, 25.380485)"><path style="stroke:none" d="M 5.578125 -4.5625 L 5.578125 0 L 4.453125 0 L 4.453125 -2.734375 L 3.4375 0 L 2.546875 0 L 1.515625 -2.75 L 1.515625 0 L 0.40625 0 L 0.40625 -4.5625 L 1.71875 -4.5625 L 3 -1.40625 L 4.265625 -4.5625 Z M 5.578125 -4.5625 "/></g></g><g style="fill:#ffffff;fill-opacity:1;"><g transform="translate(24.642161, 25.380485)"><path style="stroke:none" d="M 2.046875 0.046875 C 1.691406 0.046875 1.375 -0.0234375 1.09375 -0.171875 C 0.8125 -0.328125 0.585938 -0.546875 0.421875 -0.828125 C 0.265625 -1.109375 0.1875 -1.4375 0.1875 -1.8125 C 0.1875 -2.1875 0.265625 -2.515625 0.421875 -2.796875 C 0.585938 -3.078125 0.8125 -3.289062 1.09375 -3.4375 C 1.382812 -3.59375 1.707031 -3.671875 2.0625 -3.671875 C 2.414062 -3.671875 2.734375 -3.59375 3.015625 -3.4375 C 3.304688 -3.289062 3.535156 -3.078125 3.703125 -2.796875 C 3.867188 -2.515625 3.953125 -2.1875 3.953125 -1.8125 C 3.953125 -1.4375 3.867188 -1.109375 3.703125 -0.828125 C 3.535156 -0.546875 3.304688 -0.328125 3.015625 -0.171875 C 2.734375 -0.0234375 2.410156 0.046875 2.046875 0.046875 Z M 2.046875 -0.90625 C 2.265625 -0.90625 2.445312 -0.984375 2.59375 -1.140625 C 2.75 -1.296875 2.828125 -1.519531 2.828125 -1.8125 C 2.828125 -2.101562 2.753906 -2.328125 2.609375 -2.484375 C 2.460938 -2.640625 2.28125 -2.71875 2.0625 -2.71875 C 1.84375 -2.71875 1.660156 -2.640625 1.515625 -2.484375 C 1.378906 -2.328125 1.3125 -2.101562 1.3125 -1.8125 C 1.3125 -1.519531 1.378906 -1.296875 1.515625 -1.140625 C 1.660156 -0.984375 1.835938 -0.90625 2.046875 -0.90625 Z M 2.046875 -0.90625 "/></g></g><g style="fill:#ffffff;fill-opacity:1;"><g transform="translate(28.346266, 25.380485)"><path style="stroke:none" d="M 1.515625 -3.109375 C 1.617188 -3.273438 1.765625 -3.410156 1.953125 -3.515625 C 2.148438 -3.617188 2.375 -3.671875 2.625 -3.671875 C 2.925781 -3.671875 3.195312 -3.59375 3.4375 -3.4375 C 3.6875 -3.289062 3.878906 -3.078125 4.015625 -2.796875 C 4.160156 -2.515625 4.234375 -2.1875 4.234375 -1.8125 C 4.234375 -1.445312 4.160156 -1.117188 4.015625 -0.828125 C 3.878906 -0.546875 3.6875 -0.328125 3.4375 -0.171875 C 3.195312 -0.0234375 2.925781 0.046875 2.625 0.046875 C 2.375 0.046875 2.148438 0 1.953125 -0.09375 C 1.765625 -0.195312 1.617188 -0.332031 1.515625 -0.5 L 1.515625 0 L 0.40625 0 L 0.40625 -4.8125 L 1.515625 -4.8125 Z M 3.09375 -1.8125 C 3.09375 -2.09375 3.015625 -2.3125 2.859375 -2.46875 C 2.710938 -2.625 2.523438 -2.703125 2.296875 -2.703125 C 2.078125 -2.703125 1.890625 -2.625 1.734375 -2.46875 C 1.585938 -2.3125 1.515625 -2.09375 1.515625 -1.8125 C 1.515625 -1.53125 1.585938 -1.3125 1.734375 -1.15625 C 1.890625 -1 2.078125 -0.921875 2.296875 -0.921875 C 2.515625 -0.921875 2.703125 -1 2.859375 -1.15625 C 3.015625 -1.320312 3.09375 -1.539062 3.09375 -1.8125 Z M 3.09375 -1.8125 "/></g></g><g style="fill:#ffffff;fill-opacity:1;"><g transform="translate(32.323301, 25.380485)"><path style="stroke:none" d="M 0.96875 -4 C 0.769531 -4 0.609375 -4.054688 0.484375 -4.171875 C 0.359375 -4.285156 0.296875 -4.429688 0.296875 -4.609375 C 0.296875 -4.773438 0.359375 -4.914062 0.484375 -5.03125 C 0.609375 -5.144531 0.769531 -5.203125 0.96875 -5.203125 C 1.15625 -5.203125 1.3125 -5.144531 1.4375 -5.03125 C 1.5625 -4.914062 1.625 -4.773438 1.625 -4.609375 C 1.625 -4.429688 1.5625 -4.285156 1.4375 -4.171875 C 1.3125 -4.054688 1.15625 -4 0.96875 -4 Z M 1.515625 -3.625 L 1.515625 0 L 0.40625 0 L 0.40625 -3.625 Z M 1.515625 -3.625 "/></g></g><g style="fill:#ffffff;fill-opacity:1;"><g transform="translate(33.804948, 25.380485)"><path style="stroke:none" d="M 0.1875 -1.8125 C 0.1875 -2.1875 0.257812 -2.515625 0.40625 -2.796875 C 0.5625 -3.078125 0.773438 -3.289062 1.046875 -3.4375 C 1.328125 -3.59375 1.644531 -3.671875 2 -3.671875 C 2.457031 -3.671875 2.835938 -3.550781 3.140625 -3.3125 C 3.441406 -3.082031 3.644531 -2.75 3.75 -2.3125 L 2.5625 -2.3125 C 2.457031 -2.59375 2.265625 -2.734375 1.984375 -2.734375 C 1.773438 -2.734375 1.609375 -2.648438 1.484375 -2.484375 C 1.367188 -2.328125 1.3125 -2.101562 1.3125 -1.8125 C 1.3125 -1.519531 1.367188 -1.289062 1.484375 -1.125 C 1.609375 -0.96875 1.773438 -0.890625 1.984375 -0.890625 C 2.265625 -0.890625 2.457031 -1.03125 2.5625 -1.3125 L 3.75 -1.3125 C 3.644531 -0.882812 3.4375 -0.550781 3.125 -0.3125 C 2.820312 -0.0703125 2.445312 0.046875 2 0.046875 C 1.644531 0.046875 1.328125 -0.0234375 1.046875 -0.171875 C 0.773438 -0.328125 0.5625 -0.546875 0.40625 -0.828125 C 0.257812 -1.109375 0.1875 -1.4375 0.1875 -1.8125 Z M 0.1875 -1.8125 "/></g></g><g style="fill:#ffffff;fill-opacity:1;"><g transform="translate(37.301104, 25.380485)"><path style="stroke:none" d="M 2.046875 0.046875 C 1.691406 0.046875 1.375 -0.0234375 1.09375 -0.171875 C 0.8125 -0.328125 0.585938 -0.546875 0.421875 -0.828125 C 0.265625 -1.109375 0.1875 -1.4375 0.1875 -1.8125 C 0.1875 -2.1875 0.265625 -2.515625 0.421875 -2.796875 C 0.585938 -3.078125 0.8125 -3.289062 1.09375 -3.4375 C 1.382812 -3.59375 1.707031 -3.671875 2.0625 -3.671875 C 2.414062 -3.671875 2.734375 -3.59375 3.015625 -3.4375 C 3.304688 -3.289062 3.535156 -3.078125 3.703125 -2.796875 C 3.867188 -2.515625 3.953125 -2.1875 3.953125 -1.8125 C 3.953125 -1.4375 3.867188 -1.109375 3.703125 -0.828125 C 3.535156 -0.546875 3.304688 -0.328125 3.015625 -0.171875 C 2.734375 -0.0234375 2.410156 0.046875 2.046875 0.046875 Z M 2.046875 -0.90625 C 2.265625 -0.90625 2.445312 -0.984375 2.59375 -1.140625 C 2.75 -1.296875 2.828125 -1.519531 2.828125 -1.8125 C 2.828125 -2.101562 2.753906 -2.328125 2.609375 -2.484375 C 2.460938 -2.640625 2.28125 -2.71875 2.0625 -2.71875 C 1.84375 -2.71875 1.660156 -2.640625 1.515625 -2.484375 C 1.378906 -2.328125 1.3125 -2.101562 1.3125 -1.8125 C 1.3125 -1.519531 1.378906 -1.296875 1.515625 -1.140625 C 1.660156 -0.984375 1.835938 -0.90625 2.046875 -0.90625 Z M 2.046875 -0.90625 "/></g></g><g style="fill:#ffffff;fill-opacity:1;"><g transform="translate(41.005209, 25.380485)"><path style="stroke:none" d="M 5.03125 -3.671875 C 5.476562 -3.671875 5.832031 -3.53125 6.09375 -3.25 C 6.363281 -2.976562 6.5 -2.601562 6.5 -2.125 L 6.5 0 L 5.40625 0 L 5.40625 -1.96875 C 5.40625 -2.207031 5.34375 -2.390625 5.21875 -2.515625 C 5.09375 -2.640625 4.921875 -2.703125 4.703125 -2.703125 C 4.484375 -2.703125 4.3125 -2.640625 4.1875 -2.515625 C 4.070312 -2.390625 4.015625 -2.207031 4.015625 -1.96875 L 4.015625 0 L 2.90625 0 L 2.90625 -1.96875 C 2.90625 -2.207031 2.84375 -2.390625 2.71875 -2.515625 C 2.59375 -2.640625 2.421875 -2.703125 2.203125 -2.703125 C 1.992188 -2.703125 1.828125 -2.640625 1.703125 -2.515625 C 1.578125 -2.390625 1.515625 -2.207031 1.515625 -1.96875 L 1.515625 0 L 0.40625 0 L 0.40625 -3.625 L 1.515625 -3.625 L 1.515625 -3.171875 C 1.628906 -3.328125 1.773438 -3.445312 1.953125 -3.53125 C 2.140625 -3.625 2.347656 -3.671875 2.578125 -3.671875 C 2.847656 -3.671875 3.085938 -3.609375 3.296875 -3.484375 C 3.515625 -3.367188 3.6875 -3.203125 3.8125 -2.984375 C 3.9375 -3.179688 4.101562 -3.34375 4.3125 -3.46875 C 4.53125 -3.601562 4.769531 -3.671875 5.03125 -3.671875 Z M 5.03125 -3.671875 "/></g></g><g style="fill:#ffffff;fill-opacity:1;"><g transform="translate(24.77646, 27.687211)"><path style="stroke:none" d="M 1.03125 -1.265625 L 0.609375 -0.484375 L 0.609375 0 L 0.453125 0 L 0.453125 -0.484375 L 0.03125 -1.265625 L 0.21875 -1.265625 L 0.53125 -0.625 L 0.84375 -1.265625 Z M 1.03125 -1.265625 "/></g></g><g style="fill:#ffffff;fill-opacity:1;"><g transform="translate(26.020585, 27.687211)"><path style="stroke:none" d="M 0.71875 0.015625 C 0.59375 0.015625 0.484375 -0.0078125 0.390625 -0.0625 C 0.296875 -0.125 0.21875 -0.203125 0.15625 -0.296875 C 0.101562 -0.398438 0.078125 -0.507812 0.078125 -0.625 C 0.078125 -0.75 0.101562 -0.859375 0.15625 -0.953125 C 0.21875 -1.054688 0.296875 -1.132812 0.390625 -1.1875 C 0.484375 -1.25 0.59375 -1.28125 0.71875 -1.28125 C 0.832031 -1.28125 0.9375 -1.25 1.03125 -1.1875 C 1.132812 -1.132812 1.210938 -1.054688 1.265625 -0.953125 C 1.316406 -0.859375 1.34375 -0.75 1.34375 -0.625 C 1.34375 -0.507812 1.316406 -0.398438 1.265625 -0.296875 C 1.210938 -0.203125 1.132812 -0.125 1.03125 -0.0625 C 0.9375 -0.0078125 0.832031 0.015625 0.71875 0.015625 Z M 0.71875 -0.125 C 0.800781 -0.125 0.878906 -0.144531 0.953125 -0.1875 C 1.023438 -0.226562 1.078125 -0.285156 1.109375 -0.359375 C 1.148438 -0.441406 1.171875 -0.53125 1.171875 -0.625 C 1.171875 -0.726562 1.148438 -0.816406 1.109375 -0.890625 C 1.078125 -0.972656 1.023438 -1.035156 0.953125 -1.078125 C 0.878906 -1.117188 0.800781 -1.140625 0.71875 -1.140625 C 0.625 -1.140625 0.539062 -1.117188 0.46875 -1.078125 C 0.40625 -1.035156 0.351562 -0.972656 0.3125 -0.890625 C 0.269531 -0.816406 0.25 -0.726562 0.25 -0.625 C 0.25 -0.53125 0.269531 -0.441406 0.3125 -0.359375 C 0.351562 -0.285156 0.40625 -0.226562 0.46875 -0.1875 C 0.539062 -0.144531 0.625 -0.125 0.71875 -0.125 Z M 0.71875 -0.125 "/></g></g><g style="fill:#ffffff;fill-opacity:1;"><g transform="translate(27.632125, 27.687211)"><path style="stroke:none" d="M 0.296875 -1.265625 L 0.296875 -0.46875 C 0.296875 -0.351562 0.320312 -0.265625 0.375 -0.203125 C 0.4375 -0.148438 0.515625 -0.125 0.609375 -0.125 C 0.703125 -0.125 0.773438 -0.148438 0.828125 -0.203125 C 0.890625 -0.265625 0.921875 -0.351562 0.921875 -0.46875 L 0.921875 -1.265625 L 1.09375 -1.265625 L 1.09375 -0.46875 C 1.09375 -0.363281 1.066406 -0.273438 1.015625 -0.203125 C 0.972656 -0.128906 0.914062 -0.0703125 0.84375 -0.03125 C 0.78125 0 0.703125 0.015625 0.609375 0.015625 C 0.523438 0.015625 0.445312 0 0.375 -0.03125 C 0.300781 -0.0703125 0.242188 -0.128906 0.203125 -0.203125 C 0.160156 -0.273438 0.140625 -0.363281 0.140625 -0.46875 L 0.140625 -1.265625 Z M 0.296875 -1.265625 "/></g></g><g style="fill:#ffffff;fill-opacity:1;"><g transform="translate(29.041768, 27.687211)"><path style="stroke:none" d="M 0.8125 0 L 0.5 -0.515625 L 0.296875 -0.515625 L 0.296875 0 L 0.140625 0 L 0.140625 -1.265625 L 0.546875 -1.265625 C 0.640625 -1.265625 0.71875 -1.25 0.78125 -1.21875 C 0.851562 -1.1875 0.90625 -1.140625 0.9375 -1.078125 C 0.96875 -1.023438 0.984375 -0.960938 0.984375 -0.890625 C 0.984375 -0.804688 0.957031 -0.726562 0.90625 -0.65625 C 0.851562 -0.59375 0.78125 -0.550781 0.6875 -0.53125 L 1 0 Z M 0.296875 -0.65625 L 0.546875 -0.65625 C 0.640625 -0.65625 0.707031 -0.675781 0.75 -0.71875 C 0.789062 -0.757812 0.8125 -0.816406 0.8125 -0.890625 C 0.8125 -0.960938 0.789062 -1.019531 0.75 -1.0625 C 0.707031 -1.101562 0.640625 -1.125 0.546875 -1.125 L 0.296875 -1.125 Z M 0.296875 -0.65625 "/></g></g><g style="fill:#ffffff;fill-opacity:1;"><g transform="translate(30.329545, 27.687211)"><path style="stroke:none" d=""/></g></g><g style="fill:#ffffff;fill-opacity:1;"><g transform="translate(30.997078, 27.687211)"><path style="stroke:none" d="M 0.296875 -1.265625 L 0.296875 0 L 0.140625 0 L 0.140625 -1.265625 Z M 0.296875 -1.265625 "/></g></g><g style="fill:#ffffff;fill-opacity:1;"><g transform="translate(31.626416, 27.687211)"><path style="stroke:none" d="M 0.921875 -1.265625 L 0.921875 -1.125 L 0.578125 -1.125 L 0.578125 0 L 0.40625 0 L 0.40625 -1.125 L 0.0625 -1.125 L 0.0625 -1.265625 Z M 0.921875 -1.265625 "/></g></g><g style="fill:#ffffff;fill-opacity:1;"><g transform="translate(32.792327, 27.687211)"><path style="stroke:none" d=""/></g></g><g style="fill:#ffffff;fill-opacity:1;"><g transform="translate(33.459861, 27.687211)"><path style="stroke:none" d="M 0.984375 -0.890625 C 0.984375 -0.785156 0.945312 -0.695312 0.875 -0.625 C 0.800781 -0.5625 0.691406 -0.53125 0.546875 -0.53125 L 0.296875 -0.53125 L 0.296875 0 L 0.140625 0 L 0.140625 -1.265625 L 0.546875 -1.265625 C 0.691406 -1.265625 0.800781 -1.226562 0.875 -1.15625 C 0.945312 -1.09375 0.984375 -1.003906 0.984375 -0.890625 Z M 0.546875 -0.65625 C 0.640625 -0.65625 0.707031 -0.675781 0.75 -0.71875 C 0.789062 -0.757812 0.8125 -0.816406 0.8125 -0.890625 C 0.8125 -1.046875 0.722656 -1.125 0.546875 -1.125 L 0.296875 -1.125 L 0.296875 -0.65625 Z M 0.546875 -0.65625 "/></g></g><g style="fill:#ffffff;fill-opacity:1;"><g transform="translate(34.694889, 27.687211)"><path style="stroke:none" d="M 0.890625 -0.28125 L 0.328125 -0.28125 L 0.234375 0 L 0.0625 0 L 0.515625 -1.25 L 0.703125 -1.25 L 1.15625 0 L 0.984375 0 Z M 0.84375 -0.421875 L 0.609375 -1.046875 L 0.375 -0.421875 Z M 0.84375 -0.421875 "/></g></g><g style="fill:#ffffff;fill-opacity:1;"><g transform="translate(36.102713, 27.687211)"><path style="stroke:none" d="M 0.8125 0 L 0.5 -0.515625 L 0.296875 -0.515625 L 0.296875 0 L 0.140625 0 L 0.140625 -1.265625 L 0.546875 -1.265625 C 0.640625 -1.265625 0.71875 -1.25 0.78125 -1.21875 C 0.851562 -1.1875 0.90625 -1.140625 0.9375 -1.078125 C 0.96875 -1.023438 0.984375 -0.960938 0.984375 -0.890625 C 0.984375 -0.804688 0.957031 -0.726562 0.90625 -0.65625 C 0.851562 -0.59375 0.78125 -0.550781 0.6875 -0.53125 L 1 0 Z M 0.296875 -0.65625 L 0.546875 -0.65625 C 0.640625 -0.65625 0.707031 -0.675781 0.75 -0.71875 C 0.789062 -0.757812 0.8125 -0.816406 0.8125 -0.890625 C 0.8125 -0.960938 0.789062 -1.019531 0.75 -1.0625 C 0.707031 -1.101562 0.640625 -1.125 0.546875 -1.125 L 0.296875 -1.125 Z M 0.296875 -0.65625 "/></g></g><g style="fill:#ffffff;fill-opacity:1;"><g transform="translate(37.39049, 27.687211)"><path style="stroke:none" d="M 0.921875 -1.265625 L 0.921875 -1.125 L 0.578125 -1.125 L 0.578125 0 L 0.40625 0 L 0.40625 -1.125 L 0.0625 -1.125 L 0.0625 -1.265625 Z M 0.921875 -1.265625 "/></g></g><g style="fill:#ffffff;fill-opacity:1;"><g transform="translate(38.556402, 27.687211)"><path style="stroke:none" d="M 1.125 0 L 0.96875 0 L 0.296875 -1 L 0.296875 0 L 0.140625 0 L 0.140625 -1.265625 L 0.296875 -1.265625 L 0.96875 -0.265625 L 0.96875 -1.265625 L 1.125 -1.265625 Z M 1.125 0 "/></g></g><g style="fill:#ffffff;fill-opacity:1;"><g transform="translate(40.016975, 27.687211)"><path style="stroke:none" d="M 0.296875 -1.125 L 0.296875 -0.703125 L 0.765625 -0.703125 L 0.765625 -0.578125 L 0.296875 -0.578125 L 0.296875 -0.140625 L 0.8125 -0.140625 L 0.8125 0 L 0.140625 0 L 0.140625 -1.265625 L 0.8125 -1.265625 L 0.8125 -1.125 Z M 0.296875 -1.125 "/></g></g><g style="fill:#ffffff;fill-opacity:1;"><g transform="translate(41.131956, 27.687211)"><path style="stroke:none" d="M 0.8125 0 L 0.5 -0.515625 L 0.296875 -0.515625 L 0.296875 0 L 0.140625 0 L 0.140625 -1.265625 L 0.546875 -1.265625 C 0.640625 -1.265625 0.71875 -1.25 0.78125 -1.21875 C 0.851562 -1.1875 0.90625 -1.140625 0.9375 -1.078125 C 0.96875 -1.023438 0.984375 -0.960938 0.984375 -0.890625 C 0.984375 -0.804688 0.957031 -0.726562 0.90625 -0.65625 C 0.851562 -0.59375 0.78125 -0.550781 0.6875 -0.53125 L 1 0 Z M 0.296875 -0.65625 L 0.546875 -0.65625 C 0.640625 -0.65625 0.707031 -0.675781 0.75 -0.71875 C 0.789062 -0.757812 0.8125 -0.816406 0.8125 -0.890625 C 0.8125 -0.960938 0.789062 -1.019531 0.75 -1.0625 C 0.707031 -1.101562 0.640625 -1.125 0.546875 -1.125 L 0.296875 -1.125 Z M 0.296875 -0.65625 "/></g></g><g clip-rule="nonzero" clip-path="url(#50e90b37d4)"><path style=" stroke:none;fill-rule:nonzero;fill:#ffffff;fill-opacity:1;" d="M 49.308594 1.453125 C 49.476562 1.453125 49.585938 1.363281 49.585938 1.195312 C 49.585938 1.027344 49.476562 0.949219 49.304688 0.949219 L 49.039062 0.949219 L 49.039062 1.453125 Z M 48.804688 0.734375 L 49.320312 0.734375 C 49.628906 0.734375 49.824219 0.898438 49.824219 1.191406 C 49.824219 1.414062 49.703125 1.554688 49.527344 1.613281 L 49.863281 2.171875 L 49.589844 2.171875 L 49.285156 1.664062 C 49.28125 1.660156 49.207031 1.664062 49.207031 1.664062 L 49.039062 1.664062 L 49.039062 2.171875 L 48.804688 2.171875 L 48.804688 0.734375 "/></g><g clip-rule="nonzero" clip-path="url(#e6dbbef84f)"><path style=" stroke:none;fill-rule:nonzero;fill:#ffffff;fill-opacity:1;" d="M 49.289062 0.25 C 49.125 0.25 48.96875 0.28125 48.820312 0.34375 C 48.675781 0.402344 48.546875 0.492188 48.4375 0.601562 C 48.328125 0.710938 48.238281 0.839844 48.179688 0.984375 C 48.117188 1.132812 48.085938 1.289062 48.085938 1.453125 C 48.085938 1.613281 48.117188 1.769531 48.179688 1.917969 C 48.238281 2.0625 48.328125 2.191406 48.4375 2.300781 C 48.546875 2.410156 48.675781 2.5 48.820312 2.558594 C 48.96875 2.621094 49.125 2.652344 49.289062 2.652344 C 49.449219 2.652344 49.605469 2.621094 49.753906 2.558594 C 49.898438 2.5 50.027344 2.410156 50.136719 2.300781 C 50.246094 2.191406 50.335938 2.0625 50.394531 1.917969 C 50.457031 1.769531 50.488281 1.613281 50.488281 1.453125 C 50.488281 1.289062 50.457031 1.132812 50.394531 0.984375 C 50.335938 0.839844 50.246094 0.710938 50.136719 0.601562 C 50.027344 0.492188 49.898438 0.402344 49.753906 0.34375 C 49.605469 0.28125 49.449219 0.25 49.289062 0.25 Z M 49.289062 2.902344 C 49.089844 2.902344 48.902344 2.863281 48.722656 2.789062 C 48.550781 2.714844 48.394531 2.609375 48.261719 2.476562 C 48.128906 2.34375 48.023438 2.1875 47.949219 2.015625 C 47.875 1.835938 47.835938 1.648438 47.835938 1.453125 C 47.835938 1.253906 47.875 1.066406 47.949219 0.886719 C 48.023438 0.714844 48.128906 0.558594 48.261719 0.425781 C 48.394531 0.292969 48.550781 0.1875 48.722656 0.113281 C 48.902344 0.0390625 49.089844 0 49.289062 0 C 49.484375 0 49.671875 0.0390625 49.851562 0.113281 C 50.023438 0.1875 50.179688 0.292969 50.3125 0.425781 C 50.445312 0.558594 50.550781 0.714844 50.625 0.886719 C 50.699219 1.066406 50.738281 1.253906 50.738281 1.453125 C 50.738281 1.648438 50.699219 1.835938 50.625 2.015625 C 50.550781 2.1875 50.445312 2.34375 50.3125 2.476562 C 50.179688 2.609375 50.023438 2.714844 49.851562 2.789062 C 49.671875 2.863281 49.484375 2.902344 49.289062 2.902344 "/></g></g></svg>